<svg xmlns="http://www.w3.org/2000/svg" xmlns:xlink="http://www.w3.org/1999/xlink" preserveAspectRatio="xMidYMid" width="15" height="11" viewBox="0 0 15 11">
  <defs>
    <style>
      .cls-1 {
        fill: #555;
        fill-rule: evenodd;
      }
    </style>
  </defs>
  <path d="M13.929,9.750 C13.929,9.883 13.803,10.000 13.661,10.000 L1.339,10.000 C1.197,10.000 1.071,9.883 1.071,9.750 L1.071,3.750 C1.247,3.937 1.440,4.109 1.649,4.265 C2.846,5.125 4.051,5.999 5.215,6.906 C5.843,7.398 6.621,7.999 7.492,7.999 L7.500,7.999 L7.508,7.999 C8.379,7.999 9.157,7.398 9.785,6.906 C10.949,5.999 12.154,5.125 13.351,4.265 C13.560,4.109 13.753,3.937 13.929,3.750 L13.929,9.750 ZM13.929,1.538 C13.929,2.203 13.242,3.070 12.698,3.468 C11.576,4.289 10.455,5.117 9.341,5.945 C8.898,6.281 8.094,7.000 7.508,7.000 L7.500,7.000 L7.492,7.000 C6.906,7.000 6.102,6.281 5.658,5.945 C4.545,5.117 3.423,4.289 2.302,3.468 C1.548,2.914 1.071,2.140 1.071,1.250 C1.071,1.117 1.197,1.000 1.339,1.000 L13.661,1.000 C13.979,1.000 13.929,1.343 13.929,1.538 ZM15.000,1.250 C15.000,0.562 14.397,-0.001 13.661,-0.001 L1.339,-0.001 C0.603,-0.001 -0.000,0.562 -0.000,1.250 L-0.000,9.750 C-0.000,10.437 0.603,11.000 1.339,11.000 L13.661,11.000 C14.397,11.000 15.000,10.437 15.000,9.750 L15.000,1.250 Z" class="cls-1"/>
</svg>
