<svg xmlns="http://www.w3.org/2000/svg" xmlns:xlink="http://www.w3.org/1999/xlink" preserveAspectRatio="xMidYMid" width="12" height="20" viewBox="0 0 12 20">
  <defs>
    <style>
      .cls-1 {
        fill: #555;
        fill-rule: evenodd;
      }
    </style>
  </defs>
  <path d="M7.250,18.000 C7.250,18.687 6.687,19.249 6.000,19.249 C5.312,19.249 4.750,18.687 4.750,18.000 C4.750,17.312 5.312,16.750 6.000,16.750 C6.687,16.750 7.250,17.312 7.250,18.000 ZM10.500,15.500 C10.500,15.765 10.266,16.000 10.000,16.000 L2.000,16.000 C1.734,16.000 1.500,15.765 1.500,15.500 L1.500,4.499 C1.500,4.234 1.734,4.000 2.000,4.000 L10.000,4.000 C10.266,4.000 10.500,4.234 10.500,4.499 L10.500,15.500 ZM7.500,2.250 C7.500,2.390 7.391,2.499 7.250,2.499 L4.750,2.499 C4.609,2.499 4.500,2.390 4.500,2.250 C4.500,2.109 4.609,1.999 4.750,1.999 L7.250,1.999 C7.391,1.999 7.500,2.109 7.500,2.250 ZM12.000,1.999 C12.000,0.906 11.094,-0.000 10.000,-0.000 L2.000,-0.000 C0.906,-0.000 -0.000,0.906 -0.000,1.999 L-0.000,18.000 C-0.000,19.094 0.906,19.999 2.000,19.999 L10.000,19.999 C11.094,19.999 12.000,19.094 12.000,18.000 L12.000,1.999 Z" class="cls-1"/>
</svg>
