<svg xmlns="http://www.w3.org/2000/svg" xmlns:xlink="http://www.w3.org/1999/xlink" preserveAspectRatio="xMidYMid" width="52.812" height="39.75" viewBox="0 0 52.812 39.75">
  <defs>
    <style>
      .cls-1 {
        fill: #c0301c;
        fill-rule: evenodd;
      }
    </style>
  </defs>
  <path d="M16.505,32.594 C16.880,32.217 16.880,31.638 16.505,31.261 L5.160,19.870 L16.505,8.478 C16.880,8.101 16.880,7.522 16.505,7.145 L15.061,5.696 C14.686,5.319 14.109,5.319 13.733,5.696 L0.281,19.203 C-0.094,19.580 -0.094,20.159 0.281,20.536 L13.733,34.044 C14.109,34.420 14.686,34.420 15.061,34.044 L16.505,32.594 ZM33.565,1.667 C33.709,1.174 33.421,0.652 32.930,0.508 L31.140,0.014 C30.678,-0.131 30.159,0.159 30.014,0.652 L19.247,38.073 C19.103,38.565 19.391,39.087 19.882,39.232 L21.672,39.724 C22.134,39.870 22.653,39.580 22.798,39.087 L33.565,1.667 ZM52.531,20.536 C52.906,20.159 52.906,19.580 52.531,19.203 L39.079,5.696 C38.703,5.319 38.126,5.319 37.751,5.696 L36.307,7.145 C35.932,7.522 35.932,8.101 36.307,8.478 L47.652,19.870 L36.307,31.261 C35.932,31.638 35.932,32.217 36.307,32.594 L37.751,34.044 C38.126,34.420 38.703,34.420 39.079,34.044 L52.531,20.536 Z" class="cls-1"/>
</svg>
