<svg xmlns="http://www.w3.org/2000/svg" xmlns:xlink="http://www.w3.org/1999/xlink" preserveAspectRatio="xMidYMid" width="48" height="47.96" viewBox="0 0 48 47.96">
  <defs>
    <style>
      .cls-1 {
        fill: #c0301c;
        fill-rule: evenodd;
      }
    </style>
  </defs>
  <path d="M23.994,-0.013 C10.738,-0.013 -0.000,10.725 -0.000,23.981 C-0.000,37.236 10.738,47.975 23.994,47.975 C37.250,47.975 47.988,37.236 47.988,23.981 C47.988,10.725 37.250,-0.013 23.994,-0.013 ZM23.994,3.415 C27.475,3.415 30.769,4.298 33.661,5.825 L28.466,11.020 C27.047,10.538 25.574,10.270 23.994,10.270 C22.441,10.270 20.941,10.538 19.522,11.020 L14.327,5.825 C17.219,4.298 20.513,3.415 23.994,3.415 ZM5.838,33.648 C4.311,30.756 3.428,27.462 3.428,23.981 C3.428,20.500 4.311,17.206 5.838,14.314 L11.033,19.509 C10.551,20.928 10.283,22.401 10.283,23.981 C10.283,25.534 10.551,27.034 11.033,28.453 L5.838,33.648 ZM23.994,44.547 C20.513,44.547 17.219,43.664 14.327,42.137 L19.522,36.942 C20.941,37.424 22.441,37.692 23.994,37.692 C25.574,37.692 27.047,37.424 28.466,36.942 L33.661,42.137 C30.769,43.664 27.475,44.547 23.994,44.547 ZM23.994,34.264 C18.317,34.264 13.711,29.658 13.711,23.981 C13.711,18.304 18.317,13.698 23.994,13.698 C29.671,13.698 34.277,18.304 34.277,23.981 C34.277,29.658 29.671,34.264 23.994,34.264 ZM36.955,28.453 C37.437,27.034 37.705,25.534 37.705,23.981 C37.705,22.428 37.437,20.928 36.955,19.509 L42.150,14.314 C43.677,17.206 44.560,20.500 44.560,23.981 C44.560,27.462 43.677,30.756 42.150,33.648 L36.955,28.453 Z" class="cls-1"/>
</svg>
